<svg xmlns="http://www.w3.org/2000/svg" width="103.28" height="93.24">
  <style>
    .st0{fill:#FFFFFF; stroke: rgba(108, 91, 85, .37); stroke-width: 1px;}
  </style>
  <path d="M70.93 92.6c5.83-12.14 14-22.92 20.92-34.42 4.3-7.14 8.56-15 10.43-23.3.7-3.1 1.07-6.27.98-9.47-.24-8.5-4.02-16.9-11.34-21.6-2.7-1.7-5.68-2.6-8.77-3-7.75-2.1-16.7.3-22.73 5.5-2.92 2.6-5.22 6-6.95 9.5-1.12 1.7-2.05 3.6-2.7 5.5l-.45.3-.64.8c-1.76-2.8-4.24-5.1-7.15-6.7-7.3-4-17.27-4.3-25.4-1.4C9.38 17.1 3.3 22.7.97 30.7-2.2 41.52 2.8 51.93 10.4 59.5l.95.93c2.22 2.08 4.63 3.95 7.18 5.64.18.3.47.46.8.52 4.8 3 10.06 5.4 15.42 7.2 2.36.7 4.73 1.5 7.1 2.2.52.2 1.05.5 1.58.8 6.16 3.1 11.8 6.9 17.74 10.5l.66.3c2.26 1.3 4.6 2.4 7.08 3.2h.1l-.2.4c-.7 1.4 1.5 2.7 2.2 1.2zm23.3-83.74c.64.64 1.24 1.33 1.8 2.1l.16.2c-.2.26-.2.58-.1.95 3.5 8.6 1.5 17-2 25-1.5 3.4-3.3 6.7-5.1 9.9 1.6-3.1 3.1-6.3 4.3-9.6.8-2.2 1.5-4.5 2-6.8.5-1.5.9-3.1 1.2-4.6 1.3-6.1.7-12.1-2.4-16.9zM67.67 83l-1.2-.63c.5-.73.96-1.48 1.42-2.23.1 1.12 1.7 1.82 2.2.58 1.7-3.78 3.2-7.65 4.9-11.4 3.3-4.8 6.5-9.63 9.6-14.6l1.8-3.16c-2.6 4.92-4.9 9.96-7.3 15.02-2.9 6.16-6.1 12.5-11 17.33-.1-.3-.3-.6-.6-.9zm5.47-15.53l-.32.73-.97 1.4-2.32 3.43c1.1-3.3 2.35-6.54 3.68-9.75 2.2-3.77 3.7-7.83 5.5-11.74 2-4.27 4.5-8.25 7-12.2 3.1-4.78 6.1-9.53 8.3-14.74-.2 2.1-.6 4.15-1.1 6.18-.9 2.57-2 5.08-3.2 7.5-1 2-2 3.96-3 5.8-4.2 7.88-9.8 15.2-13.5 23.4zM55.44 17.2c3.46-5.35 9.05-9.67 14.42-11.87 2.54-1.05 5.2-1.72 7.87-1.98-2.66.53-5.26 1.47-7.6 2.54-5.75 2.6-11.44 6.9-15.2 12.3l.5-1.1zm9.8-5.6c5.4-3.84 12.63-7.1 19.4-5.98 7.66 1.26 9.54 8.7 9.5 15.4-.47-.2-1.05-.17-1.45.22-5.7 5.5-9.1 12.4-12.2 19.48-1 2.04-1.8 4.1-2.8 6.15-2.4 5.22-4.8 10.4-7 15.7-1.3 2.3-2.8 4.66-4.9 6.02 0-2.6.4-5.2 1.1-7.7 2.7-4.6 5.2-9.2 7.7-13.9 1-1.9 2-3.8 3.1-5.7 1.7-3.2 3.6-6.2 5.5-9.3 2.7-4.7 5.4-9.6 6.4-14.9.3-1.3-1.1-2.1-2.1-1.3C84 19 81.4 22.9 79.3 27c2.03-4.47 3.72-9.07 4.55-14 .13-.8-.57-1.9-1.54-1.53l-.4.2c.1-.57.3-1.14.4-1.7.2-1-.9-2.05-1.8-1.4-4.4 2.83-7.4 7.22-10.1 11.6-3.2 5.2-5.7 10.8-8.3 16.35-1.5 3.25-3.4 6.7-5.1 10.2-1.4 2.94-2.8 6-3.8 9.05-1.1 3.38-1.7 6.8-1.6 10.28-.9 1.23-1.8 2.4-2.9 3.4-.4-4.07.7-8.3 1.9-12.13.3-1 .6-1.97 1-2.95l.8-1.97 1.8-4.53.15-.4 2.3-5.4c.26-.5.5-1.04.7-1.57 1.5-2.95 3.07-5.8 4.65-8.7 3.95-7 7.8-14.02 10.9-21.4.5-1.2-1.04-2.73-2-1.5-.06.08-.1.17-.2.25v.04c-2.86 3.7-5.25 7.7-7.4 12 .8-1.9 1.5-3.7 2.16-5.6.5-1.4-1.2-1.9-2.1-1.2-3.7 2.9-6.1 7-8.1 11.3-.2-.4-.7-.7-1.1-.7 2-5.6 6.55-10.3 11.25-13.6zm-4.76 34.5c1.35-2.68 2.76-5.34 4.03-8.07 2.3-4.88 4.6-9.76 7.2-14.46 2-3.6 4.4-7.37 7.4-10.28l-.2.7c-2.4 2.2-4.2 5.2-5.7 8.1-2.5 4.8-4.5 9.9-6.9 14.8-.9 1.8-1.8 3.7-2.8 5.7l-.5.9-1.1 2.1c-.8 1.7-1.6 3.5-2.4 5.3-.5 1-.9 2.1-1.4 3.2-.5 1.2-1.1 2.5-1.7 3.8-.4 1-.9 2.1-1.5 3.1v.1-.1c.7-3.3 1.9-6.5 3.2-9.5.8-1.9 1.7-3.8 2.6-5.6v.1zM81 15.4l.05-.04c-2.48 10.3-8.58 19.07-12.87 28.68-.2.43-.4.87-.58 1.3-1.87 4.42-3.75 8.82-6.02 13.04-1.12 2.07-2.53 4.77-4.4 6.8.6-3.16 1.6-6.28 2.83-9.35 1-2.08 1.9-4.18 2.8-6.26l2.3-4.7.8-1.5c5-9.37 11.6-17.95 15.1-28zM56.8 68.8c2.28-1.67 4-4.26 5.44-6.56 2.8-4.46 4.88-9.37 6.93-14.2.7-1.65 1.46-3.27 2.25-4.9 1.9-3.88 4-7.7 5.97-11.58-1.7 3.64-3.2 7.37-4.9 10.93l-.2.4c-2.6 5.3-5.8 11-7.6 17-1.6 2.5-3.2 5.1-4.9 7.5-.8 1.1-1.5 2.6-2.5 3.8-.3.3-.6.7-.9.9-.1-1.2-.1-2.3 0-3.4l.1-.1zm29.26-47.28c-1.97 5.25-5.1 10.05-8.1 14.88 2.26-5.24 4.58-10.46 8.1-14.88zm-31.7 45.25c0 .1 0 .2-.02.28l-.02-.2.05-.08zm6.26-45.57c-1.6 3.6-3.44 7.1-5.3 10.6 1.5-3.7 3.08-7.4 5.3-10.6zm-.94 7.76c-1.44 3.25-2.8 6.53-4.18 9.75-.8 1.6-1.53 3.2-2.2 4.8-.67 1.7-1.32 3.4-1.96 5.1-.55 1.4-1.1 2.8-1.6 4.2-.46 1.2-.93 2.3-1.43 3.5-.9 2.2-2.4 6.3-4.7 8.1l.2-1.5.3-.5c2.4-4.2 4.2-8.8 6-13.3l.2-.3.8-1.8c2.6-6.1 5.8-11.8 8.8-17.7zm-9.5 8.53l-1.15 2.3c-1.65 3.4-3.26 6.9-4.6 10.5C43 54 41.9 57.9 41.35 61.8c-1.3 2.2-2.85 4.35-4.9 5.8.04-1.54.25-3.07.6-4.6 2.3-3.9 3.96-8.27 5.8-12.3l.2-.5c1.74-3.75 3.8-7.3 5.85-10.9l2.25-4-.97 2.1zM34.74 62.1c-.66 1.1-1.38 2.15-2.18 3.15.14-.8.3-1.6.5-2.43 1.13-1.47 2.1-3.08 2.98-4.75-.5 1.3-.95 2.65-1.3 4zm9.46-25.5c.8-1.8 1.6-3.54 2.5-5.27.38-.7.75-1.37 1.14-2.05-.33.8-.68 1.56-1.05 2.34-.8 1.7-1.7 3.34-2.7 5zM3.7 45.08c-3.42-9.87.4-20.57 9.17-26.03 6.9-4.3 15.9-5.47 23.72-3.36 1.6.4 3.1 1 4.5 1.8-5.1-2-11-2.3-16.5-1.2-4.9.9-9.8 3.2-13.1 7-3.5 4.1-4.2 9.8-3.9 14.9 0 .7.1 1.3.2 2-1 2.3-2.1 4.7-3.3 6.9L3.6 45zM24.3 19.4c-.76 1.45-1.52 2.9-2.26 4.36-.16.3-.32.58-.5.86-.07.14-.1.28-.14.4-1.3 2.64-2.6 5.3-3.8 8-.43.06-.83.3-1.03.8-.68 1.6-1.17 3.3-1.68 4.97 1.3-5.2 3.2-10.2 6.5-14.2 1-1.3-.8-3-1.8-1.8-4.9 5.9-6.9 13.7-8.5 21.2-.3-1.2-.6-2.3-.7-3.5l1.6-4.2c.7-2.1 1.4-4.1 2-6.2.6-2.3 1.4-4.3 3.7-5.3 1.5-.7.2-2.8-1.3-2.2-4 1.7-4.4 5.8-5.7 9.4l-.7 2c.1-1.4.3-2.7.6-4 1.3-5.3 5.7-8.6 10.7-10.4 2.4-.9 5-1.4 7.6-1.6h-.1c-1.87 2-3.4 4.3-4.8 6.64.8-1.4 1.52-2.8 2.2-4.3.7-1.4-1.4-2.7-2.17-1.2zm-4.42 14.63l-.54 1.34c-.35.86-.67 1.72-1 2.6-.53 1.17-1.05 2.37-1.56 3.58l.18-.57c.9-2.34 1.9-4.65 2.92-6.95zM17 55.73l-.32-.4.57-.86c-.1.42-.18.84-.25 1.26zm1.45 7.3c-1.87-1.3-3.66-2.72-5.32-4.26-2.84-2.62-5.3-5.6-7.2-8.9.12-.08.23-.2.32-.33.85-1.4 1.8-2.73 2.65-4.14.55 1.9 1.25 3.75 2.08 5.53-.33 1.2-.65 2.4-.94 3.6-.35 1.48 1.46 2.06 2.3.97.2-.3.4-.58.62-.87 0 .03.03.05.04.08.13.3.26.5.4.7l-.18.8c-.24 1.2.9 1.9 1.76 1.4l.5.6c.4.5.83 1 1.26 1.5.1.2.22.3.38.4.5.5 1 1 1.53 1.5-.08.5-.15 1.1-.2 1.6zm3.28 2.14l.6-.6c1.22.9 2.45 1.8 3.7 2.62.67.4 1.35.9 2.04 1.3-2.13-1-4.27-2.1-6.34-3.4zm4.07-1.22c-.6-.43-1.2-.87-1.77-1.33.76-.97 1.48-1.98 2.15-3.04-.3 1.46-.46 2.92-.38 4.37zm-3.7-2.92c-.25-.2-.5-.43-.73-.64.3-1.5.72-2.8 1.2-4.2.22-.6.44-1.2.68-1.8 2.2-3.6 3.85-7.6 5.92-11.1 3.97-6.7 8.3-13.3 10.8-20.7.4-1.2-1.26-2.1-2.1-1.2-5.58 5.9-8.5 13.7-11.76 21.1-1.6 3.6-3.4 7-4.9 10.6-.5.7-1 1.5-1.5 2.2.8-3.8 2.4-7.3 4-10.9 4.6-7.6 8.6-15.5 11.8-23.8.5-1.3-1.2-2-2.1-1.2-4.9 4.8-7 11.6-9.4 17.9-.7 1.9-1.5 3.8-2.4 5.7-1.3 2.2-2.7 4.5-4.1 6.7 1-3.8 2.2-7.5 3.5-11.2l.1-.2c2.9-6.5 6.8-12.6 10.2-18.8.3-.7.1-1.3-.4-1.7 4.5-.1 8.9.9 12.7 3.2-2.3 4-4.2 8.1-6 12.3-2.1 3.6-4.4 7.3-6.3 11.1-1.8 3.4-3.4 7.1-5.3 10.6-1 1.9-2.2 3.9-3.6 5.6zm7.75 5.62l-.3-.17.36-.27v.5zm-1.53-2.37c-.34-3.33.8-6.85 2.3-10.2 1.2-2.68 2.62-5.25 3.7-7.5 1.94-4.04 3.65-8.15 5.44-12.22 1.87-3.25 3.65-6.56 5.1-10.06l.6-1.53c.8.64 1.58 1.35 2.3 2.13-.7 1-1.33 2.02-1.93 3.07-2.86 5-4.93 10.45-7.46 15.62-1.53 3.1-3.14 6.3-4.56 9.6-1.2 2.8-2.2 5.7-3 8.6-.7.9-1.5 1.7-2.4 2.4zm5.66 4.78l-.9-.5c.3-.32.58-.65.87-.98 0 .5 0 1 .02 1.48zm8.2 4.27c-1.76-.9-3.53-1.78-5.27-2.7l-.2-.1c1.8-.92 3.2-2.3 4.4-3.84.2.5.9.8 1.5.7 1.6-.3 2.9-1.4 3.9-2.7-.3 2.5-.3 5.1.3 7.5.2.7 1.2 1.2 1.9.7 1.4-1 2.6-2.1 3.7-3.4.3.5.9.8 1.5.6l.4-.1c0 1.4 0 2.8.2 4.2.1.7.8 1.5 1.6 1.2 1-.4 1.7-.9 2.4-1.5.6-.6 1.1-1.3 1.6-2 1.3-1.8 2.5-3.6 3.7-5.5-.1 1.2-.1 2.5.1 3.8.1.7.7 1.5 1.6 1.2 1-.4 2-.9 2.8-1.6-.8 2.2-1.5 4.4-2.2 6.62-.2.56.1 1 .5 1.3-.6 1-1.2 2.03-1.9 3-1.5-.75-3.1-1.46-4.7-2.13-3.6-1.5-7.3-2.78-11-3.94l-6.3-1.8zm18.73 10.9c-2.4-1.48-4.8-3.1-7.2-4.6 2.3.77 4.5 1.6 6.7 2.55l2.6 1.18c0 1.04 1.3 2 2.1 1.04.5.25 1 .5 1.5.78s1 .18 1.4-.1c.2.87 1.3 1.56 2.1.75 5-4.8 8.2-11.1 11.2-17.28 3.1-6.42 6-12.84 9.4-19.06 2.4-4.2 4.8-8.7 6.7-13.3 1.9-4.5 3.2-9.1 3.3-13.8.6 4.3.1 8.9-1 13.2-.3 1.2-.7 2.4-1.1 3.5C94 52 85.8 63.2 78.4 74.6c-2.94 4.53-5.77 9.2-8.26 14.1-.1-.1-.26-.2-.44-.3-3.1-1.06-5.9-2.6-8.66-4.3z" class="st0"/>
</svg>
