<svg xmlns="http://www.w3.org/2000/svg" id="Layer_1" width="72.57" height="64.96">
  <style>
    .st0{fill:#FFFFFF; stroke: rgba(108, 91, 85, .37); stroke-width: 1px;}
  </style>
  <path d="M.64 15c-.14.14-.3.3-.42.45-.4.44-.23 1.15.23 1.38-.1 2.35.3 4.74 1.13 7.03 1.62 4.53 4.4 8.56 7.35 12.4 2.7 6.4 6.98 12.08 11.08 17.62l2.7 3.57c.2.57.3 1.15.3 1.73.1.74 1 .96 1.4.68l1 1.38c-.4.36-.3.84 0 1.13-.5.37-1.1.77-1.6 1.2-.8.68.4 1.87 1.2 1.2.7-.54 1.4-1.02 2.1-1.46.4.1.9-.1 1-.5 2.9-1.5 6-2.5 9-3.5 4.1-1.5 8-3.4 11.9-5.4 7.5-4 13.8-9.1 18.6-16.1 3.6-5.3 6.8-12.4 4.6-18.9-1.3-4.1-4.6-6.5-8.4-7.8C62 9.8 59.9 9 57.5 8.7c-6.1-.8-14.36 1.84-18.1 7.23-.6-2.8-1.94-5.3-3.8-7.45-2.27-3.4-5.67-5.8-9.83-6.6-1.7-.6-3.47-1-5.24-1.2-.27-.44-.9-.74-1.37-.3l-.2.2c-1.06-.04-2.1 0-3.14.13-5.8.8-10.5 4.6-13.3 9.6-1 1.5-1.56 3.1-1.8 4.8zm3.64 10.97c-1.14-2.32-1.96-4.76-2.17-7.32 0-.78 0-1.56.1-2.32l.8-.5c.4-.28.5-.7.3-1.06 1.9-1.8 3.9-3.37 5.9-4.88-.3.7-.7 1.5-1 2.2-.2.5-.3 1-.5 1.6-.4.4-.8.9-1.2 1.4-.2.2-.4.4-.5.6-.2.4 0 .9.4 1.1-1 1.1-1.9 2.4-2.6 3.7-.4.7.4 1.5 1.2 1.1l1.5-.9v2.1c-.7.9-1.3 1.8-1.9 2.8zm2.4 4.18c-.46-.72-.9-1.45-1.34-2.2.4-.18.78-.35 1.16-.54.1.9.24 1.7.4 2.4l-.2.4zM8.15 20l1.75-1c-.64.62-1.26 1.27-1.85 1.94.03-.3.05-.63.1-.94zm.17 7.67c-.04-.35-.1-.7-.13-1.06.5-.2 1-.5 1.5-.8-.5.6-1 1.3-1.5 1.9zm2.3 7.94c-.62-1.4-1.15-2.9-1.57-4.5 2.6-.8 5.1-1.8 7.52-3-1.24 1.5-2.35 3.1-3.27 4.8-.36.7.22 1.5.95 1.3 3-.8 5.76-2.1 8.36-3.7-.3.4-.7.8-1 1.2-1 1-2 1.8-3.1 2.7-.7.6-1.4 1.1-2.2 1.6l-.9.6c.2 0 .4.2.3.8.1-.3 0-.6-.2-.8 0 .1-.1.1-.2.2-.3.2 0-.1.3-.1-.4-.32-1.2-.3-1.3.4-.1.7.2 1.5 1 1.5.9-.04 1.7-.62 2.4-1.1l.98-.66-.07.14c-.3.58.1 1.36.7 1.3-1.5.93-3 1.9-4.4 2.87-1.3-1.7-2.67-3.3-3.96-5zm7.75 4.6l-2.23 2.6-.55-.7 2.7-1.8zm-1 7.2c-.63-.9-1.24-1.8-1.83-2.7.65.9 1.3 1.7 1.92 2.6l-.1.2zm1.07-1.5c-.38-.5-.77-1.1-1.16-1.6.8-.3 1.6-.6 2.35-1.1-.2.4-.12.8.1 1.1L18.45 46zM26 36.1c-1.93 1.8-3.95 3.63-6.2 5.03 1.28-1.44 2.6-2.85 3.95-4.24l3.77-2.2L26 36.1zm17.17-5.8c-1.88 1.2-3.72 2.44-5.48 3.8-3.2 2.42-6.1 5.2-9.2 7.7-2.7 2.13-5.7 4.54-9.1 5.46 1.2-1.7 2.6-3.33 4-4.87 6.3-4.4 13-8.3 19.6-12.1zm-24.5 18.85l.13-.03c.36.55.7 1.1 1.02 1.64-.4-.53-.78-1.06-1.16-1.6zm7.12 2.7c-.8 1.12-1.5 2.3-2.1 3.53-.8-2.35-2-4.56-3.4-6.67 2.6-.8 5-2.4 7.3-4.1 3-2.3 5.8-4.9 8.7-7.3-4.3 4.1-8.1 8.5-11.3 13.4-.4.5 0 1.1.5 1.2zm.5 7.78c0 .03 0 .07-.1.1-.6-.8-1.1-1.6-1.7-2.38.9-.13 1.8-.96 2.6-1.5.2.4.8.57 1.2.16-.8 1.2-1.6 2.4-2.3 3.7zm7.7-1.2c-1.5.55-3 1.1-4.5 1.74 1.7-1.2 3.6-2.32 5.4-3.38-.4.5-.7 1-1 1.6zM29.2 58c1.48-2.3 3.17-4.46 5-6.5 4.16-2.84 8.62-5.26 12.8-8.06 5.17-3.47 10.04-7.57 14.7-11.8.28-.18.57-.35.87-.5.3-.17.43-.42.43-.67 0-.02.02-.03.03-.05.9-.82 1.77-1.65 2.64-2.48.8-.75-.4-1.94-1.2-1.2-.96.94-1.96 1.87-3 2.8-9.3 5.4-19.33 11.4-27.06 19.33l-1.1.86c-1.5 1.14-3.1 2.25-4.8 3.32-.5.33-1.6 1.22-2.6 1.88 1-1.83 2.3-3.48 3.7-5C43 41.53 54.1 29.65 68 21.96c.25 2.14.06 4.37-.57 6.5-.26.9-.58 1.74-.97 2.56-.17-.03-.35 0-.54.1-1.2.72-2.34 1.5-3.47 2.34l-.48.25c-1.7.9-3.28 2.1-4.84 3.2-2.8 2-5.54 4.1-8.2 6.2-.17 0-.34.1-.5.2-6.6 4.6-12.14 10.9-19.2 14.8zm35.7-24.22l-.1.12v-.06l.1-.06zm-.8 1.1c-2.68 3.54-6.35 6.43-9.9 8.87-2.65 1.83-5.42 3.5-8.23 5.08 1.77-1.24 3.54-2.44 5.18-3.7 4.16-3.2 7.92-7.06 12.14-10.2l.2-.12c.1.1.3.2.5.1zm-.4-.1c.13-.04.1 0 0 0zm4.45-19.12c2.53 2.77 3.12 6.52 2.5 10.12-1.2 7.2-6.32 14.02-11.56 18.87-3.5 3.2-7.6 5.66-11.7 7.87-3 1.6-6.1 3.05-9.2 4.33.6-.5 1.2-.96 1.8-1.42.5-.4.4-1.14 0-1.46l3.8-2.1c6.3-3.46 12.6-7.1 17.9-12.07 4.7-4.4 8-10.12 8-16.7 0-2.94-.9-5.73-2.4-8.08l.6.64zm-11.84-4.3c1.1 0 2.2.07 3.2.2 1.1.15 2.2.38 3.2.72 2.7 1.9 4.4 4.78 5.1 7.98 0 0-.1 0-.1.02-9.2 2.5-16.5 9.7-23.8 15.53-4.5 3.7-9.8 7.1-14 11.4 4-5.2 8.9-9.8 13.9-14 2.1-1.7 4.2-3.4 6.4-4.9 5.1-2.8 10.4-5.6 15.2-8.9.6-.4.5-1.1 0-1.4.3-.1.5-.4.7-.6.6-.7-.1-1.8-1-1.3-11.2 6.9-23 13-34.2 20 2.3-1.9 4.6-3.7 6.8-5.5 2.9-2.3 5.8-4.8 8.7-7.2 4.3-2.6 8.7-5.1 12.8-7.9.8-.5.3-1.9-.6-1.5-4.7 1.77-8.9 4.75-12.8 7.96-3.5 2.14-6.9 4.35-10.2 6.8L29 32.5c7.25-6.8 15.2-12.98 23.7-18.1L56 12c.24-.15.36-.35.4-.55zm-18.5 8.38c.2.9 1.7.82 1.7-.2v-.4c.2-.28.5-.55.7-.8.3.02.6-.08.8-.4l.6-.73 1.4-.7c.4-.2.5-.6.4-.9l2.6-1.8c2.3-1.1 4.8-1.8 7.4-2.1L51.2 13c-5.64 3.4-11.14 6.95-16.3 11-2.6 2.06-5.1 4.17-7.55 6.4-1.9 1.75-3.83 3.56-6.07 4.8.6-.8 1.2-1.62 1.8-2.4l.1-.1c.1-.1.16-.16.2-.24 2-2.45 4.3-4.65 6.65-6.7 2.48-2.2 5.1-4.2 7.85-6.03l.14.17zm-1.5-4.58c.1.62.7.73 1.1.5.2.57.3 1.14.3 1.73C30.4 22 24.2 28.8 16 31.7c1.56-2.4 3.48-4.5 5.5-6.5 4.97-3 9.66-6.56 14.34-9.7.75-.5.3-1.88-.65-1.57-4.6 1.5-8.7 4.54-12.3 7.67-.9.75-1.8 1.53-2.6 2.34-3.6 2.14-7.2 4-11.1 5.25 1.5-2.2 3.3-4.2 5.3-6.1 6.8-4 13.3-8.5 20-12.8.7 1.4 1.3 3 1.6 4.7zM33.8 9c-6.84 3.53-14.2 7.45-20.1 12.77-1.9 1.06-3.8 2.08-5.7 3.03l-.04-1.1c2.44-3 5.38-5.7 8.4-8.1.66-.54 1.33-1.06 2.02-1.6 4.1-2.5 8.2-5.1 12.4-7.6 1 .8 2 1.7 2.9 2.67zM23.2 3.83c.3-.17.4-.4.4-.65.8.04 1.56.16 2.3.33 1.15.5 2.26 1.1 3.3 1.7-4 2.1-7.84 4.5-11.5 7.2-3.05 1.9-6.14 3.7-9.26 5.5l.2-1.1c1.63-1.8 3.5-3.3 5.4-4.8 1.13-.9 2.3-1.7 3.53-2.5.24.2.56.3.9.1 2.4-1.1 4.54-2.6 6.7-4.1.9-.6.15-1.8-.84-1.4-2.8 1.2-5.47 2.7-8 4.4 2.2-1.6 4.5-3.1 6.8-4.4zm-4-.23c.54-.13 1.06-.23 1.58-.3-3.6 2.18-7.08 4.64-10.2 7.48.77-1.54 1.75-2.93 2.97-4.1.84-.6 1.66-1.2 2.48-1.82.95-.54 2-.96 3.17-1.26zM9.4 4.62c2.26-1.6 4.86-2.42 7.55-2.62l-1.47 1.2c-.62.3-1.2.67-1.76 1.06-.7.48-1.3 1.03-1.87 1.62-3 2.15-6.07 4.24-8.8 6.7 1.25-3.18 3.6-6 6.35-7.96z" class="st0"/>
</svg>
