<svg xmlns="http://www.w3.org/2000/svg" id="Layer_1" width="72.74" height="71.56">
  <style>
    .st0{fill:#FFFFFF; stroke: rgba(108, 91, 85, .37); stroke-width: 1px;}
  </style>
  <path d="M72.33 26.03c.2-3.77-.72-7.54-3.14-10.82-4.9-6.6-14.5-7.9-21.6-4.3-3.4 1.8-6.2 4.4-8.8 7.2-.4-.7-.8-1.4-1.2-2-1.2-1.7-2.5-3.3-4-4.7-1.9-3-4.5-5.7-6.9-7.6C21.3-.6 14-1.4 8.3 2.9c-4 3.07-6.48 7.7-7.6 12.6l-.14.6v.08c-.08.3-.13.6-.18.92-.22 1.34-.35 2.68-.38 4-.18 9.9 5.23 19.64 9.8 28.1 1.28 2.4 2.84 4.62 4.42 6.85l.18.42c1.83 4.03 4.98 8.6 4.42 13.2-.15 1.2 1.78 1.2 1.93-.03.1-.87.08-1.74-.04-2.6.4.84.6 1.7.9 2.58 0 .04.1.08.1.1-1 .42-.5 2.14.6 1.83.4-.1.8-.25 1.2-.4.4.42 1.2.55 1.7-.05 2.4-3.15 6.5-4.8 10-6.44 3.8-1.78 7.4-3.8 11.1-5.54 7.4-3.4 14.6-6.98 20-13.17 4.2-4.76 7.1-10.9 6.7-17.34 0-.8-.2-1.7-.3-2.5zM2.1 20.98c-.05-.67-.05-1.34 0-2 .1-1.05.24-2.08.48-3.1l.12-.5c.24-.88.55-1.73.9-2.56-.3 1.47-.37 3.04-.26 4.6-.15.52-.3 1.04-.43 1.56-.2 1.15-.5 2.33-.6 3.53-.1-.5-.1-1-.1-1.5zm53.06-10.2c6.02-.1 11 2.8 13.52 7.44-2.04-2.6-4.77-4.6-7.98-5.33-.2-.1-.37-.1-.53 0-4.2-1.2-8.87-.9-13.02.4 2.43-1.5 5.13-2.6 8-2.6zm-17.83 11.8l.1-.1v.1l-.2.16.1-.15zm.08-3.16c-.5.52-1.1 1.12-1.5 1.74.4-1.45.4-2.92.2-4.38.6.8 1.2 1.7 1.5 2.64zm-3.1 3.42l.4.36c-.1.4 0 .8.2 1.12.1.13.2.23.3.3-1.4 1.43-2.7 3-3.9 4.63-3.1 3.3-6 6.8-7.9 10.72-.7.78-1.4 1.52-2.2 2.23.6-1.36 1.3-2.68 2.1-3.97 2.6-2.8 4.6-6.18 7-9.15 1.2-1.25 2.3-2.47 3.5-3.64.8-.8-.2-1.9-1.1-1.54.5-.22.8-.74.4-1.3l-.7-1.04.3.3c.4.36.8.37 1.1.2 0 .42.4.7.8.78zm-12.7 14.3c-.7.78-1.5 1.5-2.3 2.14 3.3-5.9 7.8-11.1 11.1-17l.9 1.28c.3.45.8.52 1.2.38l-.2.14c-1.1 1-2.2 2.18-3.2 3.43-2.7 3-5.3 6.2-7.4 9.7zM34.1 17.6c.1.74.13 1.48.04 2.2-.5-.55-.95-1.1-1.4-1.7.45.33 1.1.03 1.35-.5zm-2.02-5.32c.62 1.1 1.13 2.25 1.5 3.37-.53-1.22-1.08-2.42-1.7-3.57l.2.2zm-2.9 8.35c-1.83 1.7-3.55 3.48-5.23 5.3 1.1-1.54 2.14-3.15 2.98-4.87.4-.83-.43-1.85-1.3-1.32-.9.54-1.7 1.13-2.5 1.76.55-.83 1.05-1.7 1.47-2.65.5-1.1-1.15-2.1-1.66-.96-.62 1.4-1.45 2.7-2.4 3.9-.3-.4-.92-.6-1.4-.2.93-1.1 1.9-2.2 2.84-3.3.83-1-.42-2.2-1.35-1.4-2.4 2-4.64 4.3-7.1 6.2 1.95-2.4 4.1-4.6 6.3-6.8.9-.9-.45-2.2-1.36-1.4-1.4 1.2-2.78 2.5-4.2 3.7 1.33-1.4 2.63-2.8 3.77-4.4.74-1-.93-2-1.66-1-1.97 2.7-4.45 4.9-6.67 7.4.1-2 .5-3.9 1.4-5.5 1.9-3.6 6.6-3.3 9.9-2.2 3.5 1.2 6.1 4.2 8.3 7.3zM12.9 30.37c-.4.52-.78 1.05-1.13 1.6-.06-.15-.1-.3-.17-.44.44-.38.87-.76 1.3-1.16zm-2.1-1.2c-.16-.53-.3-1.07-.44-1.6.98-.52 1.9-1.1 2.8-1.73-.82 1.1-1.6 2.2-2.37 3.33zm.86 5.44c.28.1.6 0 .88-.2 3.82-2.9 6.65-6.9 10.18-10.1-3.27 4.8-7.48 9-10.27 14.1l-1.5-3.8c.22.2.47.2.7.1zM10.42 24l-.6.77c0-.14-.02-.28-.04-.4.2-.14.42-.26.63-.4zm6.24-13.4c-.7 0-1.4.07-2.07.2 0-.03.1-.07.1-.12l.5-.63 1.3.56zm.05-1.97c.1-.04.1-.1.2-.13l1 .26c2.6.76 5.1 2.13 7.1 4.04-1.2-.7-2.4-1.37-3.7-2.03-1.3-.7-2.9-1.5-4.4-2.1zm12.8 5.3c-.4-.5-.7-1-1.1-1.46.5.46.8.95 1.2 1.47zM26.8 8.6l.53.48c-1.33-.93-2.8-1.67-4.36-2.2-.34-.28-.7-.55-1.07-.8.2-.02.42-.03.64-.03 1.5.64 2.95 1.5 4.26 2.57zm-9.6-6.67c2.74-.03 5.42 1 7.83 2.6-.54-.2-1.12-.34-1.72-.4H23c-1.9-.73-3.96-1.13-6-1.2-2.2-.1-4.5.24-6.6 1 1.94-1.3 4.24-2.03 6.84-2.07zM12 5.43c-.34.23-.7.48-1 .73-.48.07-.94.15-1.4.26l-.4.1c.9-.45 1.83-.8 2.8-1.08zm-6.76 12.3c.32-1.02.7-2.04 1.08-3.03.45-1.15 1-2.6 1.83-3.65l.22-.23c.3.15.68.12.98-.25.28-.34.57-.7.87-1.03.92-.3 1.95-.3 3.02-.1-.34.6.1 1.33.65 1.47-1.5.5-2.9 1.3-3.9 2.5-2.1 2.7-2.3 6.3-2.1 9.6l-.4.6c-.4.6 0 1.2.6 1.4l.3 2.1v.2c.1.7.2 1.4.4 2l-2.1-5.1C6 22.5 5.3 20.3 5 18.1l.03-.2zM5.5 36.3v-.08c.85 1.76 1.7 3.5 2.4 5.24-.83-1.68-1.65-3.4-2.4-5.18zm6.26 8.14C9.02 38.8 6.63 32.57 5.58 26.28c.95 2.48 2.05 4.93 3 7.37 1.83 4.76 3.7 9.5 5.7 14.2 1.05 2.43 2.15 4.86 3.3 7.26-2.04-3.5-4.05-7-5.82-10.6zm9.54 13.92c-.4-.8-.72-1.54-1-2.08-1.32-2.66-2.57-5.37-3.77-8.1-1.16-2.6-2.25-5.24-3.3-7.9.15-.02.32-.1.47-.26 3.5-3.55 6.73-7.37 10.07-11.07-2.82 4.03-5.7 8.02-7.76 12.52-.4.88.5 1.74 1.4 1.32.7-.3 1.3-.7 1.9-1.1-.4 1-.8 2.1-1.2 3.1-.2.7.7 1.5 1.4 1.1.9-.6 1.7-1.3 2.5-1.9-.1.4-.2.8-.2 1.2-.1.9.9 1.6 1.6.9.7-.7 1.4-1.3 2-2-1.4 2.4-2.7 4.9-3.5 7.7-.3.9 1 1.6 1.6.9l2.4-2.7c-1.6 2.6-3 5.3-4.3 8.1zm7.42 5.94c-.58.36-2.1 1.55-2.6 1.55-.95 0-1.16 1.12-.65 1.65-.3.25-.6.5-.9.72-.97-1.38-1.65-2.96-2.33-4.5l-.7-1.55c.72.86 1.57 1.53 2.58 1.72 1.22.2 1.72-1.6.5-1.9-.78-.2-1.47-.8-2.06-1.6 3.78-4.1 7.1-8.5 10.44-13-2.78 4.1-5.2 8.5-6.56 13.4-.24.8.98 1.7 1.6.9 3.03-3.7 6-7.4 9-11.1-1.14 2.6-2.1 5.2-2.84 7.9-.26.9.93 1.6 1.6.9 2.88-2.8 5.55-5.8 8.12-8.8l-.6 1.5c-.27.8.74 1.5 1.42 1.1 4.08-2.5 7.48-6.1 10.52-9.8.78-.4 1.54-.9 2.27-1.47.05.8 1.27 1.3 1.8.45 1.34-2.24 2.6-4.53 3.83-6.84.52-.88.98-1.75 1.36-2.6.37-.86-.44-1.6-1.1-1.46.62-1.2 1.2-2.43 1.7-3.7.4-.93-.95-1.5-1.6-.9h-.02c.55-.6 1.1-1.16 1.68-1.73.87-.9-.48-2.24-1.36-1.37-5.75 5.72-11.5 11.8-15.8 18.73-3.46 4.4-6.96 8.7-10.77 12.7 1.5-4.2 3.47-8.3 5.74-12.1 6.3-7.8 12.8-15.54 19.7-22.8.7-.8-.3-2.2-1.2-1.5-6.5 4.7-11.9 10.8-16.4 17.3-1.4 1.96-2.7 4-4 6.1-3.5 4.7-7.2 9.2-10.8 13.7 2.8-6.12 7.2-11.64 11.2-17.04 2.6-3.6 5-7.4 7.8-11 2.9-3.2 5.9-6.34 8.9-9.4.9-.9-.4-2.1-1.4-1.36-3.6 2.7-6.5 6-9.2 9.6-3.4 3.7-6.77 7.6-10 11.4-4.17 4.9-7.88 10.3-11.9 15.4 3.13-5.7 6.9-10.9 11-16 5.8-6.5 11.6-13.1 17.24-19.7.8-1-.5-2.3-1.35-1.4-5.84 6.5-11.9 13-17.45 19.9l-9.6 10.8c5.6-10.8 16.5-18.25 22.36-29 .5-.9-.8-2.06-1.5-1.2-3.84 5-8.52 9.2-12.64 13.9-3.3 3.78-6.1 7.9-9.56 11.55.24-.6.5-1.2.77-1.8 2.4-2.94 4.5-6.24 6.72-9.33 2.43-2.6 5.03-5.1 7.23-7.53.23-.24.3-.6.2-.9l.1-.16c2.8-8.06 14.1-10.1 21.34-7.64 3.8 1.3 6.54 3.9 8.17 7.1l.08.17.1.2c.33.7.62 1.5.86 2.3.3.7.4 1.5.6 2.2-.4 4.6-2.7 8.6-5.4 12.2-3.1 4.2-7.1 7.5-11.5 10.3-4.7 3-9.7 5.8-14.5 8.7-3.4 2.2-6.9 4.1-10.2 6.3zm24.6-21.32c-.02.07-.02.13-.02.2-2.1 2.5-4.4 4.94-6.98 6.95.92-2.12 2-4.15 3.2-6.1 2.33-2.94 4.64-5.9 7.02-8.8-1.54 2.42-2.7 5.03-3.22 7.74zm3.52-4.34c1-2.02 2.3-3.94 3.78-5.7-1.15 1.98-2.43 3.87-3.78 5.7zm4.5 9.32c-5.8 5.23-13.23 8-20.17 11.35 2.57-1.5 5.15-2.9 7.78-4.3 4.46-2.3 9.17-4.7 13.3-7.8l-.9.8zm7.16-10.2c-1.3 2.32-3.05 4.3-5.05 6.04 1.97-2.05 3.73-4.3 5.25-6.72.24-.4.48-.8.7-1.2-.25.64-.56 1.28-.9 1.9z" class="st0"/>
</svg>
