<svg xmlns="http://www.w3.org/2000/svg" id="Layer_1" width="110" height="110">
  <style>
    .st0{fill-rule:evenodd;clip-rule:evenodd;fill:#FFFFFF;}
  </style>
  <path d="M84 68.2c0 5.52-7.88 10.03-17.77 10.28v-8.23c7.74-.16 14.25-2.4 16.7-5.48C83.63 65.84 84 67 84 68.2zm0-10.4c0 4.54-7.87 8.23-17.77 8.45v-3.92c0-1.58-.6-3.07-1.6-4.43h.73c7 0 13.08-1.7 16.27-4.2 1.5 1.22 2.37 2.62 2.37 4.1zm0-14.05c0 5.7-8.38 10.3-18.72 10.3-10.33 0-18.7-4.6-18.7-10.3 0-1.3.42-2.52 1.2-3.66 2.56 3.2 9.47 5.45 17.58 5.45 8.02 0 14.87-2.24 17.5-5.38.74 1.1 1.14 2.3 1.14 3.55z" class="st0"/>
  <path d="M65.28 25C75.62 25 84 28.77 84 33.43s-8.38 8.44-18.72 8.44c-10.33 0-18.7-3.78-18.7-8.44S54.94 25 65.28 25zm-1.73 49.7c0 5.7-8.4 10.3-18.77 10.3S26 80.4 26 74.7c0-1.43.54-2.8 1.53-4.05 2.86 2.2 9.45 3.72 17.1 3.72 7.82 0 14.52-1.6 17.3-3.85 1.04 1.28 1.62 2.7 1.62 4.2zm-18.9-20.9c10.3 0 18.64 3.68 18.64 8.23 0 4.54-8.38 8.23-18.68 8.23S26 66.56 26 62.03c0-4.55 8.35-8.23 18.64-8.23z" class="st0"/>
  <path d="M55 0C24.62 0 0 24.62 0 55s24.62 55 55 55 55-24.62 55-55S85.38 0 55 0zm0 105C27.38 105 5 82.63 5 55S27.37 5 55 5s50 22.38 50 50-22.38 50-50 50z" class="st0"/>
</svg>
