<svg xmlns="http://www.w3.org/2000/svg" width="110" height="110">
  <style>
    .st0{fill-rule:evenodd;clip-rule:evenodd;fill:#FFFFFF;}
  </style>
  <path d="M55 0C24.6 0 0 24.6 0 55s24.6 55 55 55 55-24.6 55-55S85.4 0 55 0zm0 105C27.4 105 5 82.6 5 55S27.4 5 55 5s50 22.4 50 50-22.4 50-50 50z" class="st0"/>
  <path d="M76 40c1.4 1.5 1.3 4-.2 5.6l-18 18.2c-1.7 1.6-4.2 1.6-5.7 0-1.3-1.4-1.2-4 .3-5.5l18-18.3c1.7-1.6 4.2-1.6 5.7 0z" class="st0"/>
  <path d="M98 53v4h-6.5v-4H98z" class="st0"/>
  <path d="M18.5 53v4H12v-4h6.5z" class="st0"/>
  <path d="M53 12h4v6.5h-4V12z" class="st0"/>
  <path d="M53 91.5h4V98h-4v-6.5z" class="st0"/>
  <path d="M32.2 24.2c2-1 4.3-.4 5.4 1.5L57 59.4c1 2 .5 4.4-1.3 5.4-2 1-4.3.4-5.4-1.6L31 29.6c-1.2-2-.6-4.4 1.2-5.4z" class="st0"/>
</svg>
