<svg xmlns="http://www.w3.org/2000/svg" id="Layer_1" width="110" height="110">
  <style>
    .st0{fill-rule:evenodd;clip-rule:evenodd;fill:#FFFFFF;}
  </style>
  <path d="M55 0C24.62 0 0 24.62 0 55s24.62 55 55 55 55-24.62 55-55S85.38 0 55 0zm0 105C27.38 105 5 82.63 5 55S27.37 5 55 5s50 22.38 50 50-22.38 50-50 50z" class="st0"/>
  <path d="M94.28 76.97C88.8 86.73 79.8 94.25 68.98 97.8c-.53-4.48-1.6-13.25-2.47-18.56-.3-2.37-1.4-4.22-2.8-5.7 3.5-1.83 6.7-3.98 6.7-6.76-2.3-.92-9.7-2.47-12.4-7.1 5.5-1.45 7-9.22 7-12.03v-4.4c0-2.45 2.1-9.32 10.1-10.1v-.07c.3 0 .5.02.8.04.3-.02.5-.04.8-.04v.08c8.04.78 9.56 6.73 9.56 9.2v5.3s1.48 10.57 7.08 12c-2.73 4.65-10.1 6.2-12.42 7.12 0 4.7 8.9 7.58 13.54 10.2zm-30 22.08c-3 .62-6.1.95-9.28.95-18.63 0-34.6-11.32-41.45-27.45.03 0 .05-.03.08-.04 3.78-1.8 10.3-4 12.5-6.1 2.18-2.1 1.45-4 1.33-6.4-.06-1.2-1.83-2.1-2.98-3.52-1.25-1.6-1.88-5.33-2.07-5.65-1.1.4-1.4-3.97-2.6-7.34-1.2-3.45-1.2-5.44.7-4.3-.8-3.7-.4-6.8.9-9.3.4-.73 1.3-1.07 1.8-1.7.36-.4.27-1.14.67-1.5 1.8-1.67 4.1-2.8 6.66-3.38-.55-.9-.34-2.37 0-4.15.8 1.35 2.47 2.8 4.3 3.67h.07c2.12 0 4.2.33 6.04.98 1.9.7 3.57 1.6 4.9 2.9.4.4.3 1.1.67 1.56.5.64 1.4.98 1.78 1.7 1.22 2.48 1.62 5.58.82 9.28 1.8-1.1 1.84.9.63 4.3-1.2 3.4-1.5 7.7-2.67 7.37-.2.3-.82 4-2.07 5.6-1.18 1.47-2.96 2.4-3 3.57-.15 2.5-.88 4.36 1.32 6.47 2.2 2.1 8.7 4.34 12.5 6.2 3.8 1.86 5.97 2.6 6.95 8.44.95 5.8.6 6.43.6 6.43l1.07 11.6z" class="st0"/>
</svg>
